<svg width="40" height="40" viewBox="0 0 85 100" fill="none" xmlns="http://www.w3.org/2000/svg">
<path fill-rule="evenodd" clip-rule="evenodd" d="M67.5769 17.9174C68.5521 16.1388 69.0645 14.1421 69.0645 12.1124C69.0536 5.42743 63.6371 0.0109202 56.9521 0C51.3853 0.00674628 46.5374 3.80114 45.1935 9.20331L41.8447 9.07107C18.7373 9.07472 0.00553647 27.805 3.04711e-05 50.9124C-0.0131621 61.8314 4.25791 72.324 11.8943 80.1289C10.3075 82.2248 9.45461 84.7769 9.45791 87.4016C9.46883 94.0866 14.8853 99.5031 21.5703 99.514C26.6877 99.514 31.1009 96.3008 32.8596 91.7785C35.8099 92.4243 38.8212 92.7502 41.8414 92.7504C64.95 92.7468 83.6824 74.0144 83.686 50.9058C83.701 38.0133 77.7544 25.8382 67.5769 17.924V17.9174ZM56.9488 19.5471C56.3154 19.5473 55.6845 19.4674 55.0711 19.3091L50.0463 33.8876L57.3852 32.6909L47.048 49.5372L55.6496 47.4479L26.6844 81.9835C29.4377 84.6235 29.7476 88.9185 27.4017 91.9265C25.0559 94.9344 20.8148 95.6802 17.5835 93.6529C14.3619 91.5993 13.2201 87.439 14.9419 84.0285C16.6638 80.6181 20.6894 79.0667 24.2546 80.4397L32.4629 62.5322L24.453 64.7008L37.4777 46.0562L29.4711 47.9934L52.172 17.7686C49.7819 15.7586 48.9019 12.4697 49.9689 9.53469C51.0359 6.59973 53.8226 4.64381 56.9455 4.63802C61.0521 4.63802 64.3817 7.96611 64.3835 12.0727C64.3835 16.1793 61.0554 19.5089 56.9488 19.5107V19.5471Z" fill="url(#paint0_linear_4_136)"/>
<defs>
<linearGradient id="paint0_linear_4_136" x1="0" y1="49.757" x2="83.6861" y2="49.757" gradientUnits="userSpaceOnUse">
<stop stop-color="#FF1800"/>
<stop offset="1" stop-color="#FF009B"/>
</linearGradient>
</defs>
</svg>
