<svg width="40" height="40" viewBox="0 0 92 100" fill="none" xmlns="http://www.w3.org/2000/svg">
<g clip-path="url(#clip0_4_140)">
<path d="M68.8888 35.1852H43.0863C43.2098 35.8025 43.4567 36.4198 43.5801 36.9136C44.4443 39.8765 44.9382 42.963 45.1851 46.1728C45.3085 47.4074 45.3085 48.7654 45.3085 50C45.3085 51.2346 45.3085 52.5926 45.1851 53.8272C44.9382 57.037 44.4443 60.1235 43.5801 63.0864C43.4567 63.7037 43.2098 64.321 43.0863 64.8148H68.8888C77.0369 64.8148 83.5801 58.1481 83.5801 50C83.5801 41.8518 77.0369 35.1852 68.8888 35.1852Z" fill="#00A9E5"/>
<path d="M45.1852 53.8272C45.3087 52.5926 45.3087 51.2346 45.3087 50C45.3087 48.7654 45.3087 47.4074 45.1852 46.1728C44.9383 42.963 44.4445 39.8765 43.5803 36.9136C43.4568 36.2963 43.2099 35.679 43.0864 35.1852H3.20989C1.72841 39.8765 0.987671 44.8148 0.987671 50C0.987671 55.1852 1.72841 60.1235 3.20989 64.8148H43.0864C43.2099 64.1975 43.4568 63.5803 43.5803 63.0864C44.4445 60.1235 44.9383 57.037 45.1852 53.8272Z" fill="#353535"/>
<path d="M73.3332 69.7531H41.2345C40.2468 71.9753 39.1357 74.0741 37.9011 76.0494C36.0493 79.1358 33.8271 81.8519 31.3579 84.4445C30.4937 85.3087 29.6295 86.0494 28.7653 86.9136C27.0369 88.5185 25.0616 89.8766 23.0863 91.2346C30.8641 96.4198 40.2468 99.3827 50.2468 99.3827C67.4073 99.3827 82.469 90.6173 91.3579 77.4074C86.79 72.7161 80.3703 69.7531 73.3332 69.7531Z" fill="#00BFB3"/>
<path d="M37.9014 76.0494C39.136 74.0741 40.2471 71.9753 41.2347 69.7531H5.06189C8.88905 78.5185 15.1854 86.0494 23.21 91.2346C25.1854 89.8766 27.0372 88.5185 28.8891 86.9136C29.7533 86.1729 30.6174 85.3087 31.4816 84.4445C33.8273 81.9753 36.0495 79.1358 37.9014 76.0494Z" fill="#019B8F"/>
<path d="M31.358 15.5556C30.4938 14.6914 29.6296 13.9506 28.7654 13.0864C27.037 11.4815 25.0617 10.1235 23.0864 8.76544C15.1851 13.9506 8.88885 21.4815 4.93823 30.2469H41.1111C40.1234 28.0247 39.0123 25.9259 37.7777 23.9506C36.0493 20.8642 33.8271 18.0247 31.358 15.5556V15.5556Z" fill="#F9B110"/>
<path d="M50.2468 0.61731C40.2468 0.61731 30.8641 3.58027 23.0863 8.76546C25.0616 10.1235 26.9135 11.4815 28.7653 13.0864C29.6295 13.8272 30.4937 14.6914 31.3579 15.5556C33.8271 18.1482 36.0493 20.8642 37.9011 23.9506C39.1357 25.926 40.2468 28.0247 41.2345 30.2469H73.3332C80.3703 30.2469 86.79 27.284 91.3579 22.5926C82.469 9.38275 67.4073 0.61731 50.2468 0.61731V0.61731Z" fill="#FED10A"/>
</g>
<defs>
<clipPath id="clip0_4_140">
<rect width="91.358" height="100" fill="white"/>
</clipPath>
</defs>
</svg>
