<svg width="40" height="40" viewBox="0 0 100 100" fill="none" xmlns="http://www.w3.org/2000/svg">
<path d="M8.75 65L33.75 15L58.75 1.25L66.25 5L51.25 15L80 90L66.25 97.5L58.75 93.75L41.25 51.25L17.5 66.25L13.75 67.5L8.75 65Z" fill="white"/>
<circle cx="82" cy="43" r="9" fill="white"/>
<path d="M75.9125 48.5844C82.0625 48.9937 87.5656 44.7937 88.7719 38.7562C87.2875 36.4594 84.75 35.0781 82.0187 35.0781C74.9187 34.9156 71.1094 43.3625 75.9156 48.5875L75.9125 48.5844ZM47.2344 14.6781L63.9812 4.97812L58.6437 1.96874L35.5469 15.3469L37.3875 16.3719L40.8844 18.3375L47.2344 14.6625V14.6781ZM66.1281 4.08437C66.4062 4.16874 66.6312 4.39687 66.7156 4.67187L74.4781 28.4C74.625 28.8094 74.4625 29.25 74.0875 29.475C67.9375 33.0875 64.975 40.3781 66.8469 47.2656C68.8969 54.7375 76.025 59.6187 83.725 58.8375C84.1469 58.8031 84.5531 59.0656 84.6844 59.4719L92.6937 83.8562C92.8219 84.2656 92.6594 84.7031 92.3031 84.9312L67.7437 99.8406C67.6281 99.9062 67.4812 99.9531 67.3344 99.9531C67.1219 100.003 66.8969 99.9531 66.7 99.825L58.0594 94.2094C57.9094 94.1125 57.7969 93.9687 57.7187 93.8062L40.8562 53.5062L15.1719 68.7406C15.1219 68.775 15.0562 68.8062 15.0094 68.8406C14.7469 68.9531 14.4375 68.9187 14.1937 68.775L8.38437 65.3594C7.95937 65.1312 7.79687 64.5937 8.02499 64.1687L32.8781 14.9531C32.9562 14.775 33.1187 14.6281 33.3 14.5437L58.1719 0.140619C58.4469 -0.0218806 58.7875 -0.0375056 59.0844 0.124994L66.1281 4.08437ZM40.1219 20.0219L34.0844 16.6187L10.0437 64.2094L14.4062 66.7812L35.1281 38.6094C35.325 38.3312 35.65 38.1844 35.975 38.2344C36.3 38.2687 36.575 38.475 36.7094 38.7875L59.2969 92.8375L65.3375 96.7469L40.1406 20.0219H40.1219ZM82.0156 53.0125C74.9656 53.0125 70.1812 45.85 72.8812 39.3375C75.5687 32.8281 84.0156 31.1531 88.9937 36.1344C90.8531 37.9875 91.8937 40.4969 91.8937 43.1187C91.9094 48.5844 87.4812 53.0125 82.0156 53.0125Z" fill="black"/>
</svg>
