<svg width="40" height="40" viewBox="0 0 100 90" fill="none" xmlns="http://www.w3.org/2000/svg">
<path d="M10.9856 3.67659L10.4625 1.84565L12.0319 0.276276H13.6013L14.9091 1.84565L14.6475 6.03065L18.3094 6.81533L29.295 14.4006L36.0956 15.97L42.3731 18.5856L44.4656 20.155L44.9887 20.9397L44.204 21.7244L37.4034 19.6319L35.0494 21.4628L35.5725 35.8488L38.7112 52.0656L43.1578 59.6509L51.7894 69.8519L59.8978 75.3447L61.4672 77.1756L75.33 80.3143L77.4225 78.2218L77.9456 77.6987L81.0843 75.3447H82.6537L83.1768 76.1293L79.7765 80.5759L87.885 82.1453L91.0237 81.099L99.3937 82.1453L83.9615 87.115L70.0987 88.6843L59.8978 88.4228L48.9122 87.115L36.3572 82.93L23.2791 73.5137L15.1706 63.3128L7.32376 48.1422L4.18501 36.6334L1.56939 28.525L1.04626 23.2938L8.10845 21.4628L13.3397 6.03065L10.9856 3.67659Z" fill="white"/>
<path d="M29.883 79.4349C26.0735 76.4386 22.0098 73.5658 19.2329 69.5205C13.3899 62.3869 8.89106 54.1276 5.81546 45.4482C3.95647 39.8044 3.3198 33.7536 0.923314 28.3278C-1.58365 24.3871 1.35292 20.0793 5.66948 18.8266C7.5913 18.4578 10.9705 16.6451 6.89147 17.9407C3.23452 20.6237 2.88061 15.5052 6.63052 15.1811C9.18966 14.841 10.1317 12.746 9.25659 10.86C6.50949 9.06857 15.9179 7.09976 11.184 4.42671C6.25249 -0.89382 18.0821 -1.91804 15.1635 4.12445C14.4649 8.77088 23.4295 3.27285 21.3495 8.63847C23.4636 11.2152 29.2663 9.22494 29.1223 12.8399C32.202 13.0516 33.259 15.6428 36.15 15.8418C39.1462 17.1948 44.5779 18.2611 45.5975 21.6375C42.6249 23.9909 35.7414 16.7763 35.4107 23.2908C36.3087 32.9143 36.0799 42.8277 39.6008 51.992C41.2662 57.5411 45.3035 61.9093 48.9496 66.2312C52.4382 70.464 57.1637 73.4436 61.9801 75.9526C66.2051 77.9452 70.7601 79.2668 75.3647 80.096C77.2323 78.6675 80.5295 73.3567 83.4429 75.5962C83.5812 78.1124 77.6603 80.8562 83.1644 80.5781C86.3964 79.6032 88.638 83.0776 91.2995 79.9436C93.7515 82.8481 101.491 78.0879 99.7464 84.0246C97.3872 85.5467 93.9465 84.627 91.5835 86.7208C87.6875 84.7749 84.5857 88.462 80.2725 87.9957C75.4826 88.8536 70.6096 89.1999 65.7534 89.2075C57.7864 88.578 49.6508 88.3127 42.0717 85.5388C37.8021 84.2982 33.6355 81.8671 29.883 79.4349V79.4349ZM36.6115 82.3502C40.7806 84.1531 44.8572 86.0533 49.4262 86.6265C56.6751 87.6347 64.1608 89.1854 71.4357 87.7709C68.1432 86.2842 64.7393 88.3501 61.4592 86.7078C57.5251 87.5543 53.3034 86.4921 49.304 85.9692C44.756 83.9433 39.8479 82.5503 35.5889 79.9207C30.267 77.9769 38.3412 82.4135 39.7784 82.7729C43.1052 84.6612 36.12 81.8049 35.1352 81.0199C32.3488 79.4568 31.9937 79.7834 34.8593 81.3708C35.4365 81.7086 36.0068 82.0625 36.6115 82.3502V82.3502ZM28.6785 76.7439C32.7184 78.2403 28.6606 73.9029 26.8094 74.1549C25.9892 72.732 23.6757 71.833 25.3076 71.0686C22.3721 72.0877 22.2325 67.1933 20.8527 67.8926C17.7471 66.9119 19.644 63.4381 15.9448 61.3049C15.6071 59.057 12.2694 57.1074 11.2048 53.7168C10.7347 51.9809 7.43398 46.9958 9.46159 51.6352C11.188 56.1013 14.2255 59.9261 16.7533 63.7464C18.7161 67.3839 21.0337 71.1854 24.6084 73.4545C25.8134 74.6104 26.9768 76.3816 28.6785 76.7439ZM17.0401 63.9659C17.1812 63.3558 17.779 65.2864 17.0401 63.9659V63.9659ZM33.5167 78.5377C34.4113 78.1371 32.2303 78.033 33.5167 78.5377V78.5377ZM35.7098 79.3377C35.4826 78.2331 34.7086 79.9554 35.7098 79.3377V79.3377ZM38.4549 80.4828C39.7618 79.2384 36.4408 79.6982 38.4549 80.4828V80.4828ZM43.1598 83.1051C43.9539 81.9312 40.6181 82.6621 43.1598 83.1051V83.1051ZM34.1251 76.807C36.1549 75.4938 31.5032 76.7888 34.1251 76.807V76.807ZM36.1844 77.8339C36.1268 77.1396 35.4505 78.1448 36.1844 77.8339V77.8339ZM46.4767 84.2579C48.1313 85.302 56.1386 86.5465 51.1246 84.686C50.2856 84.8629 41.8273 82.2936 46.4767 84.2579ZM30.1373 71.5322C29.9764 70.836 27.5691 70.7636 30.1373 71.5322V71.5322ZM34.9288 74.3248C36.1757 73.455 32.3406 73.6539 34.9288 74.3248V74.3248ZM38.959 76.7959C40.7485 76.1213 36.0562 76.1181 38.959 76.7959V76.7959ZM28.1876 69.4088C30.1291 70.8977 36.0176 69.5996 31.1609 68.52C28.9504 67.3417 23.9685 66.5352 27.3643 69.2305L28.1876 69.4088L28.1876 69.4088ZM41.6888 77.6491C42.4975 76.2713 38.2974 76.8623 41.6888 77.6491V77.6491ZM37.5862 74.3886C42.3336 75.7316 33.594 71.3864 36.4148 73.8944L37.04 74.1773L37.5862 74.3886L37.5862 74.3886ZM45.8115 79.1426C50.3077 79.1855 41.7505 78.5228 45.8115 79.1426V79.1426ZM26.4576 66.8075C26.282 65.97 25.3481 66.8777 26.4576 66.8075V66.8075ZM53.4171 83.4089C53.537 81.8963 51.9498 84.5344 53.4171 83.4089V83.4089ZM34.1304 71.5062C33.8585 70.7098 32.7256 71.4737 34.1304 71.5062V71.5062ZM26.884 66.2821C29.4653 66.1271 23.3502 65.1447 26.884 66.2821V66.2821ZM18.2997 60.7332C17.9785 59.4959 15.491 58.509 18.2997 60.7332V60.7332ZM40.8356 75.0352C40.3628 74.496 40.6132 75.1531 40.8356 75.0352V75.0352ZM54.8627 83.643C54.8177 82.8191 54.0987 83.9549 54.8627 83.643V83.643ZM39.5942 73.7532C39.8467 72.6916 37.3932 73.4318 39.5942 73.7532V73.7532ZM29.1442 67.1305C31.0645 66.9249 26.068 65.8323 29.1442 67.1305V67.1305ZM46.8213 78.1146C49.8138 76.9291 43.9047 77.5359 46.8213 78.1146V78.1146ZM37.6264 71.873C41.0753 72.3176 33.5228 69.5272 36.8697 71.6233L37.6264 71.873L37.6264 71.873V71.873ZM49.6128 79.2431C52.8327 77.3181 51.7711 83.7507 55.0755 79.7865C58.335 77.4066 52.2607 82.7288 56.2779 80.2108C59.1831 78.2677 63.4742 81.1319 66.185 82.0665C68.1345 81.9707 70.0297 83.7522 72.0282 82.6684C75.8754 81.6321 64.5052 81.1315 67.4857 79.293C63.9655 80.3175 61.3646 78.0716 59.6325 75.8168C55.6839 74.905 51.1184 72.8863 49.1477 69.3919C48.3442 68.0799 50.3084 69.5767 48.4541 67.432C46.0748 65.3158 44.8867 62.9135 43.2894 60.341C41.3813 59.3231 41.159 56.3268 40.9661 60.2405C40.9812 57.7705 38.6623 56.108 38.0963 56.7991C38.0862 54.4204 40.578 55.6127 38.8336 53.8527C38.4582 51.3872 37.222 48.8181 36.8504 46.0345C36.2731 44.6926 36.7691 41.8188 34.88 44.8564C34.1917 48.0666 34.6515 40.9113 35.7218 43.2709C37.1266 40.8632 35.2175 41.1464 35.1393 41.4807C36.0544 39.4492 35.7185 36.5677 34.9005 37.667C35.3881 35.5139 35.6708 29.7429 34.1707 30.7656C35.0801 28.5141 35.8953 20.4632 31.9476 23.5327C30.3477 23.5552 27.5771 24.1135 26.2675 24.7648C30.3738 27.0283 25.8545 25.5822 24.183 25.2225C23.9652 27.3169 22.3095 26.4111 20.2412 26.4316C23.5448 26.8403 18.6324 29.8104 16.7372 28.6567C14.2758 29.8331 18.8614 32.7695 16.7866 33.6775C17.0416 35.0463 13.0158 33.1831 13.3319 36.3442C10.9424 35.339 13.0029 40.0939 14.1984 38.4858C18.2625 39.5857 17.0594 42.0934 17.1629 44.4755C16.5007 45.8636 13.8936 41.2128 16.5823 41.4282C14.4611 37.9825 14.2359 40.1828 12.4733 41.7835C12.0633 41.8997 16.9693 44.061 13.8905 45.1297C16.5992 45.5477 16.6763 47.918 17.2277 49.418C18.8558 51.1137 18.5225 47.5456 20.4706 49.5834C19.2378 47.7679 13.941 44.4681 18.2057 45.5264C18.1829 43.6992 17.4344 42.2258 18.7409 42.2615C20.0348 39.9183 17.3858 48.0389 20.3023 45.0609C21.1097 44.7083 21.3096 42.7147 22.7608 45.2491C24.8685 47.3226 23.5221 48.8251 20.5489 46.9265C21.0808 48.731 24.5263 49.3759 23.8788 52.1978C24.5652 54.6797 25.5255 53.7655 26.3626 53.6221C27.0192 56.0335 27.3921 54.2603 27.4233 53.1128C30.4298 53.7564 29.7256 55.5337 30.6663 56.7753C32.7381 57.7105 27.7009 50.4366 31.2578 54.5881C35 57.9668 32.6612 59.3772 29.303 58.8359C31.4285 58.6642 32.1139 61.7094 34.7726 61.6024C37.1971 62.7558 38.8385 67.1857 34.6595 65.3416C33.2101 64.0348 28.0809 62.4225 32.2703 64.9084C36.1396 66.7002 39.2127 67.7721 42.9446 70.0213C45.6153 71.9279 46.7691 74.1117 47.7814 74.5439C45.5368 75.6161 41.0169 73.6878 44.3732 73.0969C42.2798 72.7155 39.9253 71.6569 41.9304 74.2652C43.6354 75.6887 47.9709 75.5379 48.7482 75.6992C48.0894 77.1508 46.9587 77.2663 48.7752 77.3789C46.7487 78.4588 49.425 78.626 49.6128 79.2431H49.6128ZM45.4688 67.5408C44.2359 66.2514 43.9172 63.8364 45.2499 65.9378C45.9334 66.2123 47.4393 69.8844 45.4689 67.5408H45.4688ZM58.9641 76.1132C59.7331 76.0634 58.9864 76.6974 58.9641 76.1132V76.1132ZM43.5221 64.3793C43.4748 62.43 43.9681 65.8829 43.5221 64.3793V64.3793ZM42.1809 62.5747C40.6301 59.5783 44.1359 63.4233 42.1809 62.5747V62.5747ZM25.927 51.3563C26.8381 51.1134 26.3753 52.9145 25.927 51.3563V51.3563ZM38.863 58.3681C39.4225 56.2669 39.5205 60.1311 38.863 58.3681V58.3681ZM29.7241 52.0134C29.0799 50.854 31.0717 53.1008 29.7241 52.0134V52.0134ZM37.5672 54.5277C36.098 51.2361 38.6074 52.7297 37.8923 55.0671L37.5672 54.5277ZM24.0417 45.5075C23.3849 44.4276 22.2983 41.2591 22.6481 40.2918C22.9646 41.8671 25.9982 47.0712 24.1362 42.4475C22.0786 38.5717 26.5958 43.7056 27.0605 44.6723C27.2769 45.634 25.791 44.4096 26.7978 46.6645C24.9617 44.0972 25.7139 48.0827 24.0417 45.5075V45.5075ZM19.8616 42.6272C20.0337 40.1163 20.8185 44.3489 19.8616 42.6272V42.6272ZM21.7419 43.2744C22.6391 41.3792 23.2632 45.9165 21.7419 43.2744V43.2744ZM17.2189 39.7755C15.6626 38.229 14.5364 36.8035 17.2917 38.8157C18.3533 38.8571 14.9329 35.5739 17.5473 37.7731C20.2965 38.2744 18.9049 42.2807 17.2189 39.7755ZM19.5947 39.7134C20.4985 38.8178 20.0745 40.595 19.5947 39.7134V39.7134ZM21.0567 40.1821C19.6865 37.6138 22.7196 41.2588 21.0567 40.1821V40.1821ZM18.1505 37.4047C13.6262 33.3785 23.8354 39.5101 18.8896 38.1512L18.1504 37.4048L18.1505 37.4047V37.4047ZM31.113 44.9363C29.1552 43.7624 30.5942 36.6722 31.2618 41.5214C33.1651 40.9057 31.1567 44.0257 32.5763 43.9968C32.3526 45.9654 31.7175 46.6731 31.113 44.9363ZM35.9075 47.7699C36.0996 45.6332 36.3117 49.2308 35.9075 47.7699V47.7699ZM35.0747 46.9471C35.2903 46.0343 35.097 48.022 35.0747 46.9471V46.9471ZM19.038 36.0817C16.1314 32.0716 27.485 40.1381 20.8995 37.0988C20.2114 36.9188 19.3834 36.8546 19.038 36.0817ZM28.2706 40.9768C27.9956 37.6003 28.8849 41.5365 28.2705 40.9768L28.2706 40.9768ZM35.2804 45.4735C35.8229 43.5502 35.3208 46.7459 35.2804 45.4735V45.4735ZM19.4832 34.5513C21.2106 34.1818 26.642 37.5851 21.6543 35.5234C21.1001 34.9099 19.9187 35.1886 19.4832 34.5513ZM34.3173 41.9446C34.5019 38.492 35.3486 39.8823 34.3237 42.4389L34.3174 41.9446L34.3173 41.9446H34.3173ZM20.7691 33.3498C21.4729 32.3174 18.9007 28.682 21.1399 32.0458C22.1074 32.8146 23.9413 33.3337 22.3221 33.6571C24.8686 35.9035 21.7011 34.2659 20.7691 33.3498V33.3498ZM33.5836 40.8662C34.0699 36.9331 34.0124 43.1705 33.5836 40.8662V40.8662ZM19.2991 29.7172C19.8367 29.4874 19.583 30.4335 19.2991 29.7172V29.7172ZM22.6417 31.7067C23.5019 29.9016 24.2286 33.7198 22.6417 31.7067V31.7067ZM32.0702 36.9516C32.0611 36.2584 32.2481 37.96 32.0702 36.9516V36.9516ZM31.5241 35.7425C30.2154 32.514 32.7413 37.4519 31.5241 35.7425V35.7425ZM30.7205 33.6257C30.5009 32.2917 31.4671 35.3018 30.7205 33.6257L30.7205 33.6257ZM32.0282 31.5C31.1302 29.9175 33.1622 24.5262 33.389 27.8698C32.4412 30.4751 33.1156 31.9326 33.7768 28.4382C34.9978 25.688 33.513 33.8651 32.0282 31.5L32.0282 31.5V31.5ZM33.3721 23.4823C33.7636 23.0016 33.459 24.0614 33.3721 23.4823V23.4823ZM31.1279 67.7042C30.5956 67.2397 31.1947 67.9998 31.1279 67.7042V67.7042ZM35.7511 70.0429C38.3228 70.7028 38.3096 69.6428 35.9854 69.3279C34.7352 68.1649 30.7905 66.9313 34.3212 69.1836C34.555 69.7759 35.2939 69.7621 35.7511 70.0429V70.0429ZM26.6204 63.9783C28.0371 65.0348 31.9569 66.9726 28.6387 64.3805C29.7574 63.0807 26.4974 62.3888 27.5788 61.5194C24.8281 59.8362 25.4089 59.9859 27.336 60.0389C24.0302 58.5612 27.8132 58.6718 27.6351 57.9146C26.3604 57.6629 21.3037 55.6669 24.2785 58.0786C21.2544 56.5367 23.5578 58.653 22.6438 58.4292C19.5514 57.5861 25.3977 60.7845 22.1527 59.9905C23.9267 61.3964 26.9279 63.5916 22.9027 61.4783C22.3724 62.2417 25.7832 63.3989 26.6204 63.9783ZM31.4557 66.7562C37.335 68.6508 28.5733 64.4416 31.4557 66.7562V66.7562ZM56.2081 81.7512C56.2839 80.5848 55.4046 82.7462 56.2081 81.7512V81.7512ZM58.7522 82.8219C60.1086 81.5076 58.8076 84.9156 60.9998 82.5002C61.0235 80.771 60.9323 79.7497 58.4806 81.8502C57.8048 82.225 57.5031 83.8186 58.7522 82.8219V82.8219ZM18.3677 57.4598C17.9511 55.8222 15.4477 55.8306 18.3677 57.4598V57.4598ZM21.0843 59.2399C20.0755 57.5673 17.485 57.7256 21.0843 59.2399V59.2399ZM36.5392 68.5604C38.0481 69.9007 43.4693 69.5438 38.3719 68.7253C37.6169 67.6091 33.5779 67.8777 36.5392 68.5604ZM57.7845 81.6812C60.1068 79.7325 55.5345 82.5505 57.7845 81.6812V81.6812ZM62.6144 85.0003C62.6289 84.3749 61.6134 85.2741 62.6144 85.0003V85.0003ZM62.6219 84.1248C65.1935 81.4 60.13 84.2859 62.6218 84.1248H62.6219ZM11.6861 51.866C9.49422 48.7386 10.3236 47.3329 8.20985 44.7793C7.80971 42.8266 4.58372 38.3955 6.5413 43.0899C8.33434 45.8355 8.86714 50.0864 11.6861 51.866V51.866ZM61.8152 83.2586C66.5465 80.2005 59.8731 81.9265 61.8152 83.2586V83.2586ZM65.4269 84.6734C67.7962 82.6392 63.9282 84.248 65.4269 84.6734V84.6734ZM17.5625 54.003C18.2406 52.9942 15.8113 53.8739 17.5625 54.003V54.003ZM64.6728 83.7074C66.9668 82.2283 64.1442 82.4554 64.257 83.8434L64.6728 83.7074H64.6728ZM33.5396 64.0841C33.4608 63.0853 32.3282 64.1688 33.5396 64.0841V64.0841ZM35.4636 65.1912C34.8522 63.9549 34.5235 65.3853 35.4636 65.1912V65.1912ZM68.3538 84.707C71.2928 82.5868 66.5722 84.3011 67.7369 85.1087L68.3538 84.707ZM67.2284 84.163C69.6225 82.1568 64.7007 85.0521 67.2284 84.163V84.163ZM72.9784 87.9922C74.5859 86.9155 71.0255 87.644 72.9784 87.9922V87.9922ZM19.0367 53.2755C21.1915 53.7583 27.6476 58.582 23.8387 53.6091C21.888 53.0317 23.0579 48.2633 21.0682 49.1072C22.4037 51.3383 22.167 52.2879 19.363 50.8813C15.8388 49.161 17.3825 51.7339 18.0712 52.443C17.1326 52.6563 19.3127 53.2576 19.0367 53.2755V53.2755ZM9.21985 45.5227C9.6056 43.9272 5.66793 36.7453 7.36042 41.924C7.97135 43.0088 7.90924 45.0648 9.21985 45.5227ZM27.2381 56.6313C26.1285 55.7034 27.1853 56.5 27.2381 56.6313V56.6313ZM29.9703 57.2671C29.9689 55.577 26.9502 56.5808 29.9703 57.2671V57.2671ZM53.6477 72.1936C53.1961 71.0388 51.8627 72.1668 53.6478 72.1936L53.6477 72.1936ZM54.7847 73.0241C54.6169 72.3778 54.1288 73.1489 54.7847 73.0241V73.0241ZM64.1697 78.9355C65.0723 78.2686 63.0433 78.8503 64.1697 78.9355V78.9355ZM14.1235 46.7745C16.7052 45.775 11.3573 46.0618 14.1235 46.7745V46.7745ZM51.5633 70.3619C51.5346 68.6905 49.9175 70.7765 51.5633 70.3619V70.3619ZM13.1034 44.3975C14.7618 43.8373 11.5693 44.0286 13.1034 44.3975V44.3975ZM17.917 46.7292C17.8869 46.1799 17.4078 46.9372 17.917 46.7292V46.7292ZM76.628 82.7316C78.7605 82.2993 83.6201 83.817 84.4055 82.1662C81.8158 82.1033 75.4458 80.3391 75.1444 82.5872L75.7113 82.6765L76.628 82.7316V82.7316ZM19.4468 47.1148C19.4839 45.4211 18.1261 47.0515 19.4468 47.1148V47.1148ZM6.79078 38.3355C6.21603 35.1087 4.60476 37.8472 6.79078 38.3355V38.3355ZM9.80879 39.0941C9.84587 38.058 7.0464 38.1618 9.80879 39.0941V39.0941ZM11.5335 39.9412C11.0349 39.5374 11.1433 40.4513 11.5335 39.9412V39.9412ZM22.3856 46.9028C22.8965 46.4335 21.176 46.5552 22.3856 46.9028V46.9028ZM10.3848 38.0308C10.093 35.5936 6.88924 37.6656 10.3848 38.0308V38.0308ZM4.19736 34.0161C4.10936 32.8913 3.5944 34.4404 4.19736 34.0161V34.0161ZM5.11772 33.321C4.96756 31.9873 4.32753 33.4907 5.11772 33.321V33.321ZM10.2029 36.3564C12.3532 35.5117 6.28613 34.6093 9.76353 36.1968L10.2029 36.3564ZM78.2602 78.3943C79.6365 77.1324 76.511 78.0041 78.2602 78.3943V78.3943ZM86.4819 82.6561C87.0335 81.0247 85.0933 82.8709 86.4819 82.6561V82.6561ZM10.7226 33.6911C10.9491 32.1129 9.01786 34.0045 10.7226 33.6911V33.6911ZM3.48761 28.8437C3.09895 26.6157 3.15211 22.7048 6.86968 24.0265C1.90734 25.0117 10.3042 30.1942 9.24381 26.1024C11.3304 26.2046 13.3256 24.8693 12.2306 26.8957C16.3417 26.4417 19.1919 22.8767 23.1629 23.3763C26.2562 22.9669 29.6383 22.6565 32.9717 21.4113C35.7123 21.2139 38.3506 18.2631 36.8484 16.5142C33.1109 16.1979 29.1985 16.6656 25.0675 17.4867C20.4899 18.4383 16.3319 20.2463 11.7131 21.0224C7.21119 21.6271 12.6187 22.6886 11.3291 22.9251C8.97994 23.7402 14.1307 24.2899 11.0246 25.1491C9.10628 24.7844 7.10958 24.1253 7.92899 22.1038C3.61652 22.6634 -0.172912 24.4532 3.2342 28.8417L3.48761 28.8436L3.48761 28.8435V28.8437ZM13.8791 23.5514C14.8902 19.8265 19.2962 26.6165 15.5364 24.0461C15.0873 23.71 14.3487 23.4359 13.8791 23.5514ZM14.0758 21.7454C15.5352 20.6583 14.8516 22.355 14.0758 21.7454V21.7454ZM15.9288 21.7749C16.0606 20.0608 20.1707 22.6822 16.6066 22.3919L15.9288 21.7749ZM18.4636 20.7557C19.3893 19.6741 18.7297 21.7178 18.4636 20.7557V20.7557ZM19.1121 20.3215C20.6534 18.4695 27.8407 19.1395 22.5798 20.1409C21.1697 19.0793 20.0888 20.7669 19.1121 20.3215ZM28.4917 18.8756C28.2572 13.8169 33.1516 20.6733 28.4917 18.8756V18.8756ZM31.1531 18.8611C32.1261 16.3114 34.9291 17.838 31.6034 18.3487C31.6756 18.62 31.5059 19.665 31.1531 18.8611ZM9.67312 32.3824C12.5804 30.6021 6.58671 30.8378 9.67312 32.3824V32.3824ZM11.8227 32.9797C12.8421 31.8959 9.60791 32.5401 11.8227 32.9797V32.9797ZM5.48893 28.4846C7.15015 27.2084 3.52312 27.9994 5.48893 28.4846V28.4846ZM91.3349 82.1898C91.383 80.7093 90.0652 82.857 91.3349 82.1898V82.1898ZM82.6119 76.237C82.8599 74.5324 81.4909 76.3856 82.6119 76.237V76.237ZM93.7336 82.7639C96.0563 82.7717 100.771 82.0426 95.7174 82.0449C94.9244 82.1686 91.0966 82.142 93.7337 82.7639L93.7336 82.7639V82.7639ZM13.7136 31.9349C15.5933 31.8058 16.6545 29.8615 13.3501 29.9732C8.22871 29.443 17.8686 31.7268 12.6931 31.0738C11.9977 31.5343 13.6732 32.0624 13.7136 31.9349ZM15.3691 32.7729C15.1728 31.566 14.7878 33.414 15.3691 32.7729V32.7729ZM17.3329 27.5364C18.1486 26.5247 16.2041 27.2659 17.3329 27.5364V27.5364ZM11.0815 17.0869C14.4362 15.9456 19.0237 14.6632 20.6077 17.6488C18.9957 15.7086 19.9572 13.7985 21.4798 16.6353C23.6327 19.5055 24.7105 15.3299 23.3102 14.3671C24.906 16.3499 26.721 17.2868 24.3787 14.4925C26.924 11.4306 19.282 14.8934 17.545 14.8585C16.7093 15.2336 8.91683 16.8458 11.0815 17.0869V17.0869ZM13.0475 13.3215C14.9608 11.8775 19.6645 14.1805 16.6461 11.8864C16.351 11.6257 10.0359 13.626 13.0475 13.3215V13.3215ZM20.0226 13.6095C22.2618 13.6666 19.0567 10.6014 21.725 11.9903C21.2868 10.5587 18.6184 10.2907 17.3138 9.71876C16.576 11.0276 18.8157 13.6271 20.0226 13.6095ZM14.2706 7.27786C15.0452 6.22774 12.913 7.81025 14.2706 7.27786V7.27786ZM17.1214 7.9602C20.7298 7.4816 16.2016 6.40624 16.3943 7.92174L17.1214 7.9602V7.9602V7.9602ZM11.7983 3.79504C9.25759 0.478325 16.5765 4.35257 13.9952 0.879854C11.8225 -0.850247 9.73467 2.82681 11.7983 3.79504ZM44.4048 21.3578C45.5701 19.292 39.5936 18.5732 43.6196 20.6257C43.9903 20.7495 43.9064 21.5007 44.4048 21.3578Z" fill="black"/>
</svg>