<svg width="40" height="40" viewBox="0 0 100 100" fill="none" xmlns="http://www.w3.org/2000/svg">
<rect width="100" height="100" fill="white"/>
<path fill-rule="evenodd" clip-rule="evenodd" d="M42.3829 56.5V75.9687C42.3829 80.0203 43.0704 83.5422 44.45 86.5344C45.8297 89.5266 47.6438 92.0125 49.8954 93.9922C52.1469 95.9719 54.6766 97.4687 57.4782 98.4812C60.2797 99.4937 63.1094 100 65.9563 100C68.8032 100 71.6313 99.4937 74.4344 98.4812C77.2376 97.4687 79.7657 95.9719 82.0172 93.9922C84.2688 92.0125 86.0844 89.5266 87.4626 86.5344C88.8407 83.5422 89.5297 80.0187 89.5297 75.9687V43.5313L64.3329 43.4922L64.3016 56.5H75.4688V75.9687C75.4688 79.375 74.5266 81.8844 72.6563 83.4969C70.786 85.1094 68.5438 85.9141 65.9688 85.9141C63.3938 85.9141 61.1672 85.1078 59.2813 83.4969C57.3954 81.8859 56.4688 79.3766 56.4688 75.9687V24.0313C56.4688 20.625 57.411 18.1156 59.2813 16.5031C61.1516 14.8906 63.3938 14.0859 65.9688 14.0859C68.5438 14.0859 70.7704 14.8922 72.6563 16.5031C74.5422 18.1141 75.4688 20.625 75.4688 24.0313V29.0031H89.5313V24.0313C89.5313 20.0719 88.8438 16.5734 87.4641 13.5344C86.0844 10.4953 84.2704 7.9875 82.0188 6.00625C79.7672 4.025 77.2375 2.53125 74.4375 1.51563C71.6375 0.5 68.8047 0 65.9563 0C63.1079 0 60.2813 0.50625 57.4782 1.51875C54.675 2.53125 52.1469 4.02813 49.8954 6.00781C47.6438 7.9875 45.8282 10.4969 44.45 13.5359C43.0719 16.575 42.3829 20.0734 42.3829 24.0328V43.5016H27.9969V29.0016H32.4094L21.4407 13.5016L10.4719 29.0016H15.0344V50C15.0344 53.5906 17.936 56.5 21.5188 56.5H42.386H42.3829Z" fill="#2DA6B0"/>
</svg>
