<svg width="40" height="40" viewBox="0 0 99 100" fill="none" xmlns="http://www.w3.org/2000/svg">
<g clip-path="url(#clip0_4_162)">
<path d="M97.3596 34.2839C100.283 25.3963 98.5244 7.66588 92.8598 1.12008C92.1175 0.261434 90.7361 0.384098 90.1192 1.33195L83.142 12.026C81.4174 14.167 78.3113 14.6577 75.9698 13.1634C68.3985 8.32381 59.3544 5.51366 49.6361 5.51366C39.9178 5.51366 30.8734 8.32381 23.3021 13.1634C20.9724 14.6577 17.8662 14.1559 16.1304 12.026L9.15294 1.33195C8.5363 0.384098 7.15446 0.272586 6.4122 1.12008C0.747981 7.67698 -1.01066 25.4075 1.9128 34.2839C2.88348 37.2389 3.14614 40.3613 2.57515 43.3944C2.00416 46.4052 1.43317 50.0406 1.43317 52.5719C1.43317 78.5656 23.0166 99.6299 49.6247 99.6299C76.2441 99.6299 97.8159 78.5545 97.8159 52.5719C97.8159 50.0406 97.2452 46.4052 96.6744 43.3944C96.1147 40.3613 96.3884 37.2389 97.3596 34.2839ZM49.6247 89.1259C29.0463 89.1259 12.3163 72.7779 12.3163 52.6834C12.3163 52.0254 12.339 51.3787 12.3733 50.7319C13.1157 37.0382 21.6347 25.3406 33.6826 19.765C38.5132 17.5124 43.9262 16.2634 49.6361 16.2634C55.3459 16.2634 60.7475 17.5124 65.5897 19.776C77.6373 25.3518 86.1564 37.0604 86.8987 50.7431C86.9332 51.3899 86.9559 52.0477 86.9559 52.6945C86.9442 72.7779 70.2032 89.1259 49.6247 89.1259Z" fill="#1EB4D4"/>
<path d="M65.7946 66.7116L56.2592 50.5644L48.0827 37.1048C47.8885 36.7815 47.5345 36.5919 47.1577 36.5919H39.3465C38.9582 36.5919 38.6042 36.7926 38.4101 37.1272C38.2159 37.4505 38.2274 37.852 38.4216 38.1753L46.2441 51.0104L35.7493 66.6447C35.5323 66.9682 35.5209 67.3804 35.7036 67.715C35.8863 68.0494 36.2517 68.2616 36.6514 68.2616H44.5197C44.8851 68.2616 45.2278 68.083 45.4218 67.7817L51.0975 59.1285L56.1906 67.7486C56.3848 68.0721 56.7388 68.2727 57.1158 68.2727H64.8697C65.2577 68.2727 65.612 68.0721 65.7946 67.7486C65.989 67.4364 65.989 67.0351 65.7946 66.7116Z" fill="#1EB4D4"/>
</g>
<defs>
<clipPath id="clip0_4_162">
<rect width="98.8235" height="100" fill="white"/>
</clipPath>
</defs>
</svg>
