<svg width="40" height="40" viewBox="0 0 101 101" fill="none" xmlns="http://www.w3.org/2000/svg">
<path d="M19.8339 62.6658L80.8437 42.2938C79.6247 34.6676 78.7558 29.573 77.7494 25.6849C76.6649 21.503 75.8054 20.384 75.4678 19.9965C74.2915 18.6501 72.8268 17.586 71.1828 16.8835C70.7077 16.6803 69.3762 16.2084 65.0693 16.4678C60.5123 16.7428 54.5301 17.6742 45.0567 19.1745C35.5865 20.6747 29.6074 21.6405 25.191 22.7844C21.0123 23.869 19.8902 24.7316 19.5026 25.0692C18.1587 26.2475 17.096 27.7102 16.3928 29.3542C16.1896 29.8293 15.7177 31.1608 15.9771 35.4708C16.2521 40.0278 17.1835 46.0131 18.6838 55.4865C19.1026 58.1432 19.4808 60.5186 19.8339 62.6658Z" fill="url(#paint0_linear_213_46)"/>
<path fill-rule="evenodd" clip-rule="evenodd" d="M3.01256 57.9682C0.112098 39.6402 -1.34126 30.4763 1.80299 23.1189C3.44206 19.2816 5.92478 15.8631 9.06665 13.1173C15.0895 7.85705 24.2503 6.40681 42.572 3.50323C60.8999 0.596513 70.0607 -0.853718 77.4213 2.29053C81.2564 3.93013 84.6728 6.41284 87.4166 9.55419C92.68 15.5802 94.1302 24.7441 97.0307 43.0752C99.9343 61.4031 101.384 70.5702 98.2402 77.9245C96.6023 81.7615 94.1206 85.1801 90.9797 87.9261C84.9569 93.1894 75.7929 94.6396 57.4681 97.5432C39.1464 100.447 29.9825 101.897 22.6282 98.7528C18.7931 97.1131 15.3767 94.6304 12.6328 91.4891C7.3695 85.4632 5.91615 76.2992 3.01256 57.9682ZM35.3333 90.5171C40.2404 90.2202 46.5601 89.2294 55.9147 87.7479C65.2725 86.2664 71.5829 85.2538 76.3461 84.0192C80.9562 82.8221 83.0816 81.6563 84.4537 80.4561C86.4723 78.6908 88.0673 76.4933 89.12 74.027C89.8389 72.3517 90.2921 69.9701 90.0046 65.2131C89.7076 60.306 88.7168 53.9831 87.2354 44.6254C85.7539 35.2677 84.7443 28.951 83.5098 24.1909C82.3127 19.5777 81.1438 17.4523 79.9467 16.0802C78.1827 14.0607 75.9863 12.4647 73.5207 11.4107C71.8454 10.6919 69.4638 10.2387 64.7068 10.5262C59.7997 10.8231 53.4831 11.8139 44.1254 13.2954C34.7708 14.78 28.4572 15.7896 23.6971 17.0241C19.0839 18.2212 16.9617 19.3901 15.5896 20.5872C13.5699 22.3523 11.9738 24.5497 10.9201 27.0163C10.2043 28.6916 9.75113 31.0732 10.0387 35.8303C10.3356 40.7404 11.3233 47.0602 12.8079 56.4179C14.2894 65.7757 15.2989 72.0923 16.5335 76.8524C17.7305 81.4657 18.8963 83.591 20.0965 84.9631C21.8606 86.9825 24.057 88.5785 26.5226 89.6326C28.1978 90.3514 30.5732 90.8046 35.3333 90.5171Z" fill="url(#paint1_linear_213_46)"/>
<defs>
<linearGradient id="paint0_linear_213_46" x1="39.1964" y1="0.521509" x2="55.0708" y2="99.7029" gradientUnits="userSpaceOnUse">
<stop stop-color="#66E3FF"/>
<stop offset="1" stop-color="#7064F9"/>
</linearGradient>
<linearGradient id="paint1_linear_213_46" x1="39.1965" y1="0.521501" x2="55.0709" y2="99.7029" gradientUnits="userSpaceOnUse">
<stop stop-color="#66E3FF"/>
<stop offset="1" stop-color="#7064F9"/>
</linearGradient>
</defs>
</svg>
