<svg width="40" height="40" viewBox="0 0 108 108" fill="none" xmlns="http://www.w3.org/2000/svg">
<g clip-path="url(#clip0_210_25)" filter="url(#filter0_d_210_25)">
<circle cx="54" cy="50" r="50" fill="#171B21"/>
<path d="M53.9812 44.0987C52.354 42.4715 49.7158 42.4715 48.0886 44.0987C46.4614 45.7259 46.4614 48.364 48.0886 49.9912L59.8737 61.7763C61.5009 63.4035 64.1391 63.4035 65.7663 61.7763C67.3935 60.1492 67.3935 57.511 65.7663 55.8838L53.9812 44.0987Z" fill="#F2F2F2"/>
<path d="M56.9413 26.4252C55.3141 24.798 52.6759 24.798 51.0487 26.4252C49.4215 28.0524 49.4215 30.6906 51.0487 32.3178L59.8875 41.1566C61.5147 42.7838 64.1529 42.7838 65.7801 41.1566C67.4073 39.5294 67.4073 36.8912 65.7801 35.264L56.9413 26.4252Z" fill="#68ABDF"/>
<path d="M46.6346 16.1155C45.0074 14.4883 42.3692 14.4883 40.7421 16.1155C39.1149 17.7427 39.1149 20.3809 40.7421 22.008C42.3692 23.6352 45.0074 23.6352 46.6346 22.008C48.2618 20.3809 48.2618 17.7427 46.6346 16.1155Z" fill="#99C47A"/>
<path d="M30.4117 20.5288C28.7845 18.9016 26.1463 18.9016 24.5192 20.5288C22.892 22.1559 22.892 24.7941 24.5192 26.4213L37.7774 39.6796C39.4046 41.3068 42.0428 41.3068 43.67 39.6796C45.2972 38.0524 45.2972 35.4142 43.67 33.787L30.4117 20.5288Z" fill="#FFC66D"/>
<path d="M27.4841 38.2156C25.8569 36.5884 23.2187 36.5884 21.5915 38.2156C19.9644 39.8428 19.9644 42.481 21.5915 44.1082L39.2692 61.7858C40.8964 63.413 43.5346 63.413 45.1618 61.7858C46.789 60.1587 46.789 57.5205 45.1618 55.8933L27.4841 38.2156Z" fill="#FF6470"/>
<path d="M45.3381 67.5279C43.2877 68.5726 42.4725 71.0816 43.5172 73.132C44.5619 75.1824 47.071 75.9976 49.1213 74.9529L63.9715 67.3864C66.0218 66.3417 66.8371 63.8326 65.7924 61.7823C64.7476 59.7319 62.2386 58.9166 60.1882 59.9614L45.3381 67.5279Z" fill="#F2F2F2"/>
<path d="M64.9191 83.0178C65.2791 85.2907 67.4134 86.8414 69.6863 86.4814C71.9591 86.1214 73.5098 83.9871 73.1498 81.7142L70.5426 65.2527C70.1826 62.9799 68.0483 61.4292 65.7754 61.7892C63.5025 62.1492 61.9519 64.2835 62.3119 66.5564L64.9191 83.0178Z" fill="#F2F2F2"/>
<path d="M85.7056 69.1587C87.9785 69.5187 90.1128 67.968 90.4728 65.6951C90.8328 63.4223 89.2821 61.2879 87.0093 60.928L70.5478 58.3207C68.2749 57.9607 66.1406 59.5114 65.7806 61.7843C65.4206 64.0571 66.9713 66.1915 69.2442 66.5515L85.7056 69.1587Z" fill="#F2F2F2"/>
<path d="M78.963 45.1136C80.0077 43.0632 79.1925 40.5542 77.1421 39.5095C75.0917 38.4647 72.5827 39.28 71.5379 41.3304L63.9714 56.1805C62.9267 58.2308 63.742 60.7399 65.7923 61.7846C67.8427 62.8293 70.3518 62.0141 71.3965 59.9637L78.963 45.1136Z" fill="#F2F2F2"/>
</g>
<defs>
<filter id="filter0_d_210_25" x="0" y="0" width="108" height="108" filterUnits="userSpaceOnUse" color-interpolation-filters="sRGB">
<feFlood flood-opacity="0" result="BackgroundImageFix"/>
<feColorMatrix in="SourceAlpha" type="matrix" values="0 0 0 0 0 0 0 0 0 0 0 0 0 0 0 0 0 0 127 0" result="hardAlpha"/>
<feOffset dy="4"/>
<feGaussianBlur stdDeviation="2"/>
<feComposite in2="hardAlpha" operator="out"/>
<feColorMatrix type="matrix" values="0 0 0 0 0 0 0 0 0 0 0 0 0 0 0 0 0 0 0.25 0"/>
<feBlend mode="normal" in2="BackgroundImageFix" result="effect1_dropShadow_210_25"/>
<feBlend mode="normal" in="SourceGraphic" in2="effect1_dropShadow_210_25" result="shape"/>
</filter>
<clipPath id="clip0_210_25">
<rect width="100" height="100" fill="white" transform="translate(4)"/>
</clipPath>
</defs>
</svg>
