<svg width="40" height="40" viewBox="0 0 100 100" fill="none" xmlns="http://www.w3.org/2000/svg">
<g clip-path="url(#clip0_213_54)">
<circle cx="50.5" cy="50.5" r="49.5" fill="white"/>
<path d="M99.9999 50C99.9999 63.2608 94.7321 75.9785 85.3553 85.3553C75.9784 94.7322 63.2607 100 49.9999 100L99.9999 50ZM49.9999 0C70.3124 0 87.7734 12.1094 95.6249 29.4922L29.4921 95.625C26.6405 94.3359 23.9452 92.8125 21.4062 91.0547L62.4999 50H49.9999L14.6484 85.3516C7.65725 78.359 2.89643 69.4505 0.967792 59.7524C-0.960844 50.0544 0.0293096 40.0022 3.81307 30.8668C7.59683 21.7315 14.0043 13.9231 22.2254 8.42892C30.4464 2.93475 40.1119 0.00149351 49.9999 0Z" fill="black"/>
</g>
<defs>
<clipPath id="clip0_213_54">
<rect width="100" height="100" fill="white"/>
</clipPath>
</defs>
</svg>
