<svg width="40" height="40" viewBox="0 0 40 40" fill="none" xmlns="http://www.w3.org/2000/svg">
<g clip-path="url(#clip0_213_64)">
<path d="M20.5 2L12.5 37.5L13 38.5L28 34.5L35.5 31L20.5 2Z" fill="white"/>
<path d="M36.2984 30.3895L22.5808 1.25805C22.2335 0.527659 21.5138 0.0464379 20.7061 0.00464317C19.8966 -0.0495955 19.1241 0.350873 18.7019 1.04366L3.82354 25.1416C3.36165 25.8844 3.37137 26.8275 3.84847 27.5606L11.1226 38.8253C11.6878 39.6938 12.7569 40.0869 13.7501 39.7916L34.8596 33.5475C35.5026 33.3594 36.0326 32.9019 36.3124 32.2931C36.5884 31.6872 36.5836 30.9906 36.2994 30.3885L36.2984 30.3895ZM33.2272 31.6389L15.3146 36.9357C14.7682 37.0983 14.2437 36.6246 14.3573 36.0732L20.757 5.43009C20.8766 4.85673 21.6684 4.76599 21.9187 5.29647L33.7657 30.4543C33.8717 30.6812 33.873 30.9432 33.7692 31.1711C33.6654 31.399 33.467 31.57 33.2262 31.6389H33.2272Z" fill="black"/>
</g>
<defs>
<clipPath id="clip0_213_64">
<rect width="40" height="40" fill="white"/>
</clipPath>
</defs>
</svg>
