<svg width="40" height="40" viewBox="0 0 65 100" fill="none" xmlns="http://www.w3.org/2000/svg">
<g clip-path="url(#clip0_213_59)">
<path d="M32.2749 99.8379V74.7646C32.2749 74.7119 32.3038 74.6593 32.3539 74.6329C36.0385 72.5074 32.3539 74.6329 64.6789 55.8976V48.7697C64.7786 45.9945 64.6746 41.2191 64.6789 40.9445V33.8166C64.6722 33.5493 64.6789 33.8166 64.6789 26.002V18.7795C64.6773 18.7277 64.6631 18.677 64.6373 18.632C64.6116 18.587 64.5751 18.5489 64.5313 18.5213L32.4248 -0.000401065C32.3797 -0.0267578 32.3283 -0.0406659 32.276 -0.0406659C32.2237 -0.0406659 32.1724 -0.0267578 32.1273 -0.000401065L26.0209 3.52341C25.7795 3.65611 137.602 -60.839 19.1487 7.47702L13.0604 10.9963C10.794 12.2476 8.31245 13.7231 6.18798 14.9497L-0.126587 18.6033V81.3188C-0.126587 81.3714 -0.100197 81.4241 -0.0500744 81.4479L6.13001 85.0142C8.50628 86.4596 12.42 88.654 12.9077 88.9253L19.0881 92.4947C21.5076 93.8886 25.643 96.2555 25.868 96.403L32.0669 99.9645C32.089 99.9751 32.1134 99.9799 32.1379 99.9786C32.1624 99.9773 32.1862 99.9699 32.2072 99.9571C32.2281 99.9443 32.2454 99.9264 32.2577 99.9052C32.27 99.8839 32.2768 99.8599 32.2775 99.8354L32.2749 99.8379Z" fill="white"/>
<rect x="58.73" y="23.5426" width="6.07551" height="32.4027" fill="white"/>
<path d="M32.4015 99.8383V74.765C32.4015 74.7123 32.4303 74.6597 32.4804 74.6333L64.729 56.0296C64.7527 56.0169 64.7724 55.9979 64.7859 55.9746C64.7994 55.9514 64.8061 55.9249 64.8054 55.898V48.7701C64.8064 48.7436 64.8002 48.7172 64.7874 48.6939C64.7746 48.6706 64.7557 48.6511 64.7328 48.6376C64.7099 48.6241 64.6837 48.6171 64.6571 48.6173C64.6305 48.6174 64.6044 48.6248 64.5817 48.6385L32.6278 67.0739C32.605 67.0877 32.5789 67.0951 32.5523 67.0953C32.5257 67.0955 32.4995 67.0885 32.4765 67.075C32.4535 67.0615 32.4347 67.042 32.4219 67.0186C32.4091 66.9953 32.4029 66.9689 32.404 66.9422V59.8093C32.404 59.7567 32.4303 59.7066 32.4777 59.6802L64.729 41.0765C64.7519 41.063 64.771 41.0437 64.7844 41.0207C64.7978 40.9976 64.805 40.9715 64.8054 40.9449V33.817C64.8048 33.7911 64.7975 33.7657 64.7844 33.7433C64.7712 33.7209 64.7525 33.7022 64.7301 33.6891C64.7077 33.6759 64.6823 33.6686 64.6564 33.668C64.6304 33.6674 64.6047 33.6734 64.5817 33.6854L32.6278 52.1183C32.6052 52.1326 32.579 52.1406 32.5522 52.1412C32.5254 52.1419 32.499 52.1352 32.4757 52.1219C32.4524 52.1086 32.4332 52.0892 32.4201 52.0658C32.407 52.0425 32.4006 52.0159 32.4015 51.9891V44.8588C32.4015 44.8061 32.4303 44.7563 32.4804 44.7297L64.729 26.1341C64.7525 26.1211 64.772 26.1021 64.7855 26.0789C64.799 26.0557 64.8059 26.0292 64.8054 26.0024V18.7799C64.8039 18.7281 64.7896 18.6774 64.7639 18.6324C64.7381 18.5874 64.7017 18.5493 64.6579 18.5217L32.5513 1.07397e-06C32.5062 -0.0263557 32.4549 -0.0402451 32.4026 -0.0402451C32.3503 -0.0402451 32.299 -0.0263557 32.2539 1.07397e-06L26.1475 3.5238C26.1244 3.53651 26.1051 3.5552 26.0916 3.57791C26.0782 3.60062 26.0711 3.62652 26.0711 3.6529C26.0711 3.67929 26.0782 3.70519 26.0916 3.7279C26.1051 3.75061 26.1244 3.76929 26.1475 3.78201L58.1014 22.2146C58.1231 22.2284 58.141 22.2474 58.1535 22.27C58.1659 22.2925 58.1724 22.3178 58.1724 22.3436C58.1724 22.3693 58.1659 22.3946 58.1535 22.4172C58.141 22.4397 58.1231 22.4588 58.1014 22.4726L51.9947 25.9943C51.9011 26.045 51.7884 26.045 51.6947 25.9943L19.591 7.47743C19.543 7.44975 19.4886 7.43518 19.4332 7.43518C19.3777 7.43518 19.3233 7.44975 19.2753 7.47743L13.1869 10.9967C13.1638 11.0094 13.1446 11.0281 13.1312 11.0508C13.1178 11.0735 13.1108 11.0993 13.1108 11.1257C13.1108 11.152 13.1178 11.1779 13.1312 11.2005C13.1446 11.2232 13.1638 11.2419 13.1869 11.2546L45.1355 29.69C45.1592 29.7025 45.1791 29.7213 45.193 29.7442C45.2068 29.7672 45.2142 29.7935 45.2142 29.8204C45.2142 29.8472 45.2068 29.8735 45.193 29.8965C45.1791 29.9195 45.1592 29.9382 45.1355 29.9507L39.0291 33.4723C38.981 33.5 38.9266 33.5146 38.8711 33.5146C38.8157 33.5146 38.7612 33.5 38.7131 33.4723L6.63041 14.9501C6.58238 14.9223 6.5279 14.9077 6.47244 14.9077C6.41699 14.9077 6.36251 14.9223 6.31448 14.9501L0 18.6037V81.3192C0 81.3718 0.0263272 81.4245 0.0764502 81.4483L6.25651 85.0146C6.27927 85.0285 6.30535 85.0359 6.33199 85.0361C6.35862 85.0363 6.38481 85.0292 6.40777 85.0157C6.43073 85.0022 6.4496 84.9827 6.46237 84.9594C6.47514 84.936 6.48133 84.9096 6.48029 84.883V22.6042C6.47972 22.5778 6.48626 22.5517 6.49922 22.5287C6.51218 22.5057 6.53109 22.4866 6.55396 22.4734C6.57684 22.4602 6.60284 22.4534 6.62925 22.4537C6.65566 22.454 6.6815 22.4614 6.70407 22.4751L12.8894 26.0419C12.9315 26.0682 12.9603 26.1181 12.9603 26.1736V88.7943C12.9603 88.8467 12.9869 88.8994 13.0342 88.9257L19.2146 92.4951C19.2377 92.5084 19.264 92.5154 19.2907 92.5155C19.3174 92.5155 19.3437 92.5085 19.3669 92.4951C19.39 92.4818 19.4093 92.4626 19.4227 92.4395C19.4362 92.4164 19.4433 92.3902 19.4434 92.3634V30.0768C19.4424 30.0502 19.4486 30.0238 19.4613 30.0004C19.4741 29.977 19.493 29.9576 19.5159 29.9441C19.5389 29.9306 19.5651 29.9235 19.5917 29.9237C19.6183 29.9239 19.6444 29.9313 19.6672 29.9452L25.8475 33.5092C25.8706 33.5226 25.8898 33.5418 25.9032 33.5649C25.9165 33.588 25.9236 33.6142 25.9237 33.6409V96.2718C25.9236 96.2979 25.9301 96.3236 25.9425 96.3466C25.9548 96.3696 25.9727 96.3891 25.9946 96.4034L32.1934 99.9649C32.2155 99.9755 32.24 99.9803 32.2645 99.979C32.289 99.9777 32.3128 99.9703 32.3337 99.9575C32.3546 99.9447 32.372 99.9268 32.3843 99.9056C32.3966 99.8843 32.4033 99.8603 32.404 99.8358L32.4015 99.8383Z" fill="#300D4F"/>
</g>
<defs>
<clipPath id="clip0_213_59">
<rect width="64.8107" height="100" fill="white"/>
</clipPath>
</defs>
</svg>
