<svg width="40" height="40" viewBox="0 0 100 90" fill="none" xmlns="http://www.w3.org/2000/svg">
<g clip-path="url(#clip0_4_172)">
<path d="M79.0926 27.023C80.7204 19.1384 81.0697 13.0909 80.0176 8.69966C79.3918 6.08798 78.2477 3.95741 76.5081 2.42024C74.6715 0.797394 72.3495 0.00105906 69.7404 0.00105906C65.4362 0.00105906 60.9114 1.96175 56.0759 5.68654C54.1036 7.20581 52.0566 9.03706 49.9307 11.1813C49.7615 10.9637 49.5702 10.7584 49.3571 10.5687C43.3469 5.21841 38.2867 1.89417 33.9587 0.612448C31.3853 -0.149665 28.9692 -0.222273 26.769 0.517385C24.4465 1.29814 22.596 2.91208 21.2904 5.17269C19.1356 8.90351 18.5674 13.8058 19.3707 19.859C19.6982 22.3263 20.258 25.0139 21.0489 27.926C20.7505 27.962 20.4514 28.028 20.1552 28.1261C12.5295 30.6505 7.12969 33.3651 3.86051 36.4675C1.91543 38.3134 0.645276 40.3683 0.186122 42.6431C-0.298516 45.044 0.174045 47.4523 1.47813 49.7112C3.62884 53.4366 7.58334 56.3749 13.2171 58.7021C15.4792 59.6366 18.0386 60.4829 20.8983 61.2441C20.7678 61.5384 20.6666 61.8509 20.5989 62.1788C18.9711 70.0634 18.6218 76.1108 19.674 80.5021C20.2997 83.1138 21.4438 85.2444 23.1834 86.7815C25.02 88.4044 27.3421 89.2007 29.9511 89.2007C34.2553 89.2007 38.7801 87.24 43.6156 83.5152C45.6089 81.9798 47.6785 80.1257 49.8287 77.9519C50.05 78.2976 50.3216 78.619 50.6429 78.9049C56.6531 84.2553 61.7133 87.5795 66.0413 88.8612C68.6147 89.6234 71.0308 89.696 73.231 88.9563C75.5535 88.1755 77.404 86.5616 78.7096 84.301C80.8644 80.5702 81.4326 75.6678 80.6293 69.6147C80.29 67.0582 79.7013 64.2652 78.8644 61.2311C79.1915 61.198 79.52 61.1289 79.8448 61.0213C87.4705 58.4969 92.8703 55.7823 96.1395 52.6799C98.0846 50.834 99.3547 48.7791 99.8139 46.5043C100.299 44.1034 99.826 41.6951 98.5219 39.4362C96.3712 35.7108 92.4167 32.7726 86.7829 30.4453C84.4534 29.483 81.8086 28.6141 78.8453 27.8355C78.9509 27.5773 79.0342 27.3059 79.0926 27.023Z" fill="#002C4B"/>
<path fill-rule="evenodd" clip-rule="evenodd" d="M42.3142 28.4211H57.6885C58.6312 28.4211 59.5019 28.9253 59.971 29.7429L67.6722 43.164C68.1376 43.9751 68.1376 44.9723 67.6722 45.7834L59.971 59.2045C59.5019 60.0221 58.6312 60.5263 57.6885 60.5263H42.3142C41.3715 60.5263 40.5008 60.0221 40.0317 59.2045L32.3305 45.7834C31.8651 44.9723 31.8651 43.9751 32.3305 43.164L40.0317 29.7429C40.5008 28.9253 41.3715 28.4211 42.3142 28.4211ZM55.7831 31.7245C56.7263 31.7245 57.5973 32.2293 58.0663 33.0476L63.8648 43.1652C64.3293 43.9757 64.3293 44.9717 63.8648 45.7822L58.0663 55.8999C57.5973 56.7182 56.7263 57.2229 55.7831 57.2229H44.2196C43.2765 57.2229 42.4054 56.7182 41.9364 55.8999L36.1379 45.7822C35.6734 44.9717 35.6734 43.9757 36.1379 43.1652L41.9364 33.0476C42.4054 32.2293 43.2765 31.7245 44.2196 31.7245H55.7831ZM53.7267 35.3376H46.276C45.3338 35.3376 44.4635 35.8414 43.9942 36.6584L40.2575 43.1628C39.7912 43.9746 39.7912 44.9729 40.2575 45.7846L43.9942 52.2891C44.4635 53.1061 45.3338 53.6098 46.276 53.6098H53.7267C54.6689 53.6098 55.5392 53.1061 56.0085 52.2891L59.7452 45.7846C60.2115 44.9729 60.2115 43.9746 59.7452 43.1628L56.0085 36.6584C55.5392 35.8414 54.6689 35.3376 53.7267 35.3376ZM51.747 38.7959C52.6885 38.7959 53.5582 39.2989 54.0278 40.1149L55.7808 43.1611C56.2485 43.9737 56.2485 44.9737 55.7808 45.7863L54.0278 48.8325C53.5582 49.6485 52.6885 50.1515 51.747 50.1515H48.2558C47.3143 50.1515 46.4445 49.6485 45.9749 48.8325L44.2219 45.7863C43.7543 44.9737 43.7543 43.9737 44.2219 43.1611L45.9749 40.1149C46.4445 39.2989 47.3143 38.7959 48.2558 38.7959H51.747ZM50.002 42.2026C49.1891 42.2026 48.4392 42.6354 48.0332 43.3382C47.6273 44.0408 47.6273 44.9066 48.0332 45.6093C48.4392 46.312 49.1891 46.7448 50.0007 46.7448C50.8136 46.7448 51.5635 46.312 51.9695 45.6093C52.3755 44.9066 52.3755 44.0408 51.9695 43.3382C51.5635 42.6354 50.8136 42.2026 50.002 42.2026ZM31.579 44.4742H35.6673Z" fill="#FFD94C"/>
<path fill-rule="evenodd" clip-rule="evenodd" d="M28.8738 51.7672C29.564 51.3728 30.44 51.6182 30.8305 52.3154L31.0803 52.7597C33.0823 56.3068 35.1679 59.6738 37.3372 62.8606C39.8989 66.6239 42.7799 70.4337 45.9802 74.29C46.4826 74.8953 46.4131 75.7953 45.824 76.3147L45.5022 76.5972C34.9192 85.8438 28.0409 87.6908 24.8674 82.1381C21.7632 76.7067 22.8866 66.8331 28.2375 52.5173C28.3562 52.1998 28.5814 51.9343 28.8738 51.7672ZM73.9653 62.6534C74.7295 62.5185 75.4608 63.0222 75.6103 63.7864L75.6909 64.2033C78.3065 77.8923 76.4649 84.7368 70.1662 84.7368C64.0051 84.7368 56.1625 78.8995 46.6383 67.2247C46.427 66.9658 46.3129 66.6407 46.3158 66.306C46.3227 65.5161 46.9662 64.8814 47.7531 64.8883L48.2551 64.8918C52.2661 64.9137 56.1655 64.7745 59.953 64.4744C64.4258 64.1199 69.0966 63.5129 73.9653 62.6534ZM77.5835 33.5852C77.859 32.8435 78.6886 32.4544 79.4498 32.71L79.8645 32.8502C93.4651 37.4831 98.6328 42.5746 95.3675 48.1246C92.1736 53.5533 82.8865 57.5054 67.5061 59.9809C67.165 60.0358 66.8151 59.9715 66.5172 59.7994C65.8142 59.393 65.58 58.5043 65.9941 57.8144L66.2575 57.3739C68.3564 53.8507 70.2533 50.3443 71.9483 46.8549C73.95 42.7341 75.8284 38.3109 77.5835 33.5852ZM32.4939 29.4928C32.835 29.4379 33.1849 29.5021 33.4828 29.6743C34.1858 30.0807 34.42 30.9693 34.0059 31.6592L33.7425 32.0997C31.6436 35.623 29.7466 39.1293 28.0516 42.6188C26.05 46.7396 24.1716 51.1628 22.4165 55.8884C22.141 56.6301 21.3114 57.0192 20.5502 56.7637L20.1355 56.6234C6.53485 51.9906 1.36717 46.8991 4.63245 41.3491C7.82636 35.9203 17.1135 31.9682 32.4939 29.4928ZM54.4978 12.8765C65.0808 3.62982 71.959 1.78285 75.1326 7.33559C78.2368 12.767 77.1134 22.6406 71.7625 36.9564C71.6438 37.2739 71.4186 37.5393 71.1262 37.7064C70.436 38.1009 69.56 37.8555 69.1695 37.1582L68.9197 36.7139C66.9177 33.1668 64.8321 29.7999 62.6628 26.6131C60.1011 22.8498 57.2201 19.0399 54.0197 15.1836C53.5174 14.5783 53.5869 13.6783 54.1759 13.159L54.4978 12.8765ZM30.3601 4.21051C36.5212 4.21051 44.3638 10.0479 53.888 21.7226C54.0993 21.9815 54.2134 22.3066 54.2105 22.6413C54.2036 23.4312 53.5601 24.066 52.7732 24.0591L52.2712 24.0555C48.2601 24.0337 44.3608 24.1728 40.5733 24.473C36.1005 24.8274 31.4297 25.4344 26.561 26.2939C25.7968 26.4288 25.0655 25.9252 24.916 25.1609L24.8354 24.744C22.2198 11.055 24.0614 4.21051 30.3601 4.21051Z" fill="#FF4154"/>
</g>
<defs>
<clipPath id="clip0_4_172">
<rect width="100" height="89.4737" fill="white"/>
</clipPath>
</defs>
</svg>
