<svg width="40" height="40" viewBox="0 0 100 56" fill="none" xmlns="http://www.w3.org/2000/svg">
<g clip-path="url(#clip0_4_178)">
<path d="M0 28.0278C0 22.5278 0.833334 17.3889 2.5 12.6C4.10415 7.97134 6.58238 3.69387 9.8 0H17.9444C14.8967 3.96954 12.5482 8.42977 11 13.1889C7.8819 22.7847 7.89552 33.1235 11.0389 42.7111C12.65 47.4333 14.9278 51.7222 17.8722 55.5556H9.81667C6.5855 51.9659 4.10365 47.7671 2.51667 43.2056C0.82119 38.3266 -0.0244164 33.1928 0.0166668 28.0278" fill="black"/>
<path d="M38.8889 50C38.8889 51.4734 38.3036 52.8865 37.2618 53.9284C36.2199 54.9703 34.8068 55.5556 33.3334 55.5556C31.86 55.5556 30.4469 54.9703 29.405 53.9284C28.3631 52.8865 27.7778 51.4734 27.7778 50C27.7778 48.5266 28.3631 47.1135 29.405 46.0716C30.4469 45.0298 31.86 44.4445 33.3334 44.4445C34.8068 44.4445 36.2199 45.0298 37.2618 46.0716C38.3036 47.1135 38.8889 48.5266 38.8889 50V50Z" fill="black"/>
<path d="M62.5 0.0722139L61.1667 12.05L73.3167 8.6611L74.3889 16.8278L63.3222 17.6055L70.5833 27.2722L63.1945 31.2167L58.1167 21.0333L53.6722 31.1555L46.0056 27.2778L53.2056 17.6111L42.2056 16.7667L43.4833 8.63332L55.3722 12.0222L54.0389 0.0333252H62.5611" fill="black"/>
<path d="M100 28.0278C100 33.4833 99.1555 38.5611 97.4611 43.2722C95.8805 47.8082 93.4121 51.9839 90.2 55.5556H82.1278C85.0833 51.679 87.3824 47.3436 88.9333 42.7222C90.5444 37.9722 91.3444 33.0556 91.3444 27.9445C91.3444 22.8889 90.5667 17.9611 89 13.1667C87.4562 8.40788 85.1114 3.94753 82.0667 -0.0222168H90.2055C93.4427 3.68185 95.921 7.98548 97.5 12.6445C99.1667 17.4222 100 22.5445 100 28" fill="black"/>
</g>
<defs>
<clipPath id="clip0_4_178">
<rect width="100" height="55.5556" fill="white"/>
</clipPath>
</defs>
</svg>
