<svg width="104" height="104" viewBox="0 0 104 104" fill="none" xmlns="http://www.w3.org/2000/svg">
<circle cx="52" cy="52" r="43" fill="white"/>
<path d="M52.3 5.62854C26.6251 5.62854 5.72858 26.5349 5.72858 52.2C5.72858 77.865 26.635 98.7714 52.3 98.7714C77.965 98.7714 98.8714 77.865 98.8714 52.2C98.8714 26.5349 77.965 5.62854 52.3 5.62854V5.62854ZM52.231 9.76647C53.0273 9.78709 53.7841 10.119 54.3399 10.6914C54.8957 11.2638 55.2067 12.0314 55.2064 12.8305C55.2064 13.6431 54.8836 14.4225 54.309 14.9971C53.7344 15.5717 52.955 15.8945 52.1424 15.8945C51.3297 15.8945 50.5504 15.5717 49.9758 14.9971C49.4011 14.4225 49.0783 13.6431 49.0783 12.8305C49.0782 12.4206 49.1603 12.0147 49.3198 11.6371C49.4792 11.2595 49.7129 10.9177 50.0069 10.6319C50.3009 10.3462 50.6492 10.1224 51.0312 9.97376C51.4133 9.82509 51.8213 9.75461 52.231 9.76647V9.76647ZM59.2458 14.8108C64.6248 15.8183 69.72 17.9846 74.1775 21.1593C78.635 24.334 82.348 28.441 85.0586 33.195L81.4429 41.3527C80.8222 42.7615 81.4626 44.4167 82.8616 45.0473L89.8172 48.131C90.033 50.3052 90.0594 52.4941 89.8961 54.6729H86.0241C85.6399 54.6729 85.4823 54.929 85.4823 55.3034V57.0768C85.4823 61.2542 83.1276 62.1704 81.0586 62.397C79.0882 62.6236 76.9108 61.5694 76.635 60.3675C75.4724 53.8354 73.5414 52.4463 70.4872 50.0325C74.2803 47.6285 78.2212 44.0719 78.2212 39.3231C78.2212 34.1901 74.7039 30.9586 72.3099 29.3724C68.9404 27.1556 65.2163 26.7123 64.2113 26.7123H24.2113C29.7424 20.5334 37.1562 16.3503 45.3049 14.8108L50.0241 19.7566C51.0882 20.8699 52.8517 20.9192 53.965 19.8453L59.2458 14.8108ZM15.699 37.4906C16.4962 37.5137 17.2529 37.8467 17.8085 38.4188C18.3641 38.9909 18.6747 39.7571 18.6744 40.5546C18.6744 41.3673 18.3516 42.1466 17.777 42.7213C17.2023 43.2959 16.423 43.6187 15.6104 43.6187C14.7977 43.6187 14.0184 43.2959 13.4437 42.7213C12.8691 42.1466 12.5463 41.3673 12.5463 40.5546C12.5461 40.1447 12.6282 39.7389 12.7877 39.3612C12.9472 38.9836 13.1809 38.6418 13.4749 38.3561C13.7688 38.0704 14.1172 37.8466 14.4992 37.6979C14.8813 37.5492 15.2892 37.4787 15.699 37.4906V37.4906ZM88.7532 37.6285C89.5504 37.6516 90.3071 37.9846 90.8627 38.5567C91.4183 39.1289 91.7289 39.8951 91.7286 40.6926C91.7286 41.5052 91.4058 42.2846 90.8311 42.8592C90.2565 43.4338 89.4772 43.7566 88.6645 43.7566C87.8519 43.7566 87.0726 43.4338 86.4979 42.8592C85.9233 42.2846 85.6005 41.5052 85.6005 40.6926C85.6003 40.2826 85.6824 39.8768 85.8419 39.4992C86.0014 39.1215 86.2351 38.7797 86.5291 38.494C86.823 38.2083 87.1714 37.9845 87.5534 37.8358C87.9354 37.6872 88.3434 37.6167 88.7532 37.6285V37.6285ZM21.4724 38.1212H26.8123V62.2H16.034C14.7028 57.5255 14.288 52.6378 14.8123 47.8059L21.4133 44.8699C22.8222 44.2394 23.4626 42.5941 22.832 41.1852L21.4724 38.1212ZM43.7581 38.3773H56.4773C57.1374 38.3773 61.1177 39.1359 61.1177 42.1212C61.1177 44.5941 58.0636 45.4808 55.5512 45.4808H43.7483L43.7581 38.3773ZM43.7581 55.6778H53.502C54.3887 55.6778 58.2606 55.934 59.4921 60.8798C59.8764 62.397 60.7335 67.3428 61.3148 68.929C61.8961 70.7024 64.2507 74.2492 66.7631 74.2492H82.6645C81.5988 75.6764 80.4334 77.0262 79.1769 78.2886L72.704 76.8995C71.1966 76.5743 69.7089 77.5399 69.3838 79.0473L67.8468 86.2197C62.9045 88.4585 57.5372 89.6043 52.1115 89.5788C46.6857 89.5533 41.3294 88.3571 36.4084 86.0719L34.8714 78.8995C34.5463 77.3921 33.0685 76.4266 31.5611 76.7517L25.2261 78.1113C24.0505 76.8987 22.9578 75.6084 21.9552 74.2492H52.7631C53.1079 74.2492 53.3443 74.1901 53.3443 73.865V62.9684C53.3443 62.6532 53.1079 62.5842 52.7631 62.5842H43.7483L43.7581 55.6778ZM29.5414 80.6335C30.3386 80.6565 31.0953 80.9895 31.6509 81.5617C32.2065 82.1338 32.5171 82.9 32.5168 83.6975C32.5168 84.5101 32.1939 85.2895 31.6193 85.8641C31.0447 86.4387 30.2653 86.7615 29.4527 86.7615C28.6401 86.7615 27.8607 86.4387 27.2861 85.8641C26.7115 85.2895 26.3887 84.5101 26.3887 83.6975C26.3885 83.2876 26.4706 82.8817 26.6301 82.5041C26.7896 82.1265 27.0233 81.7847 27.3172 81.4989C27.6112 81.2132 27.9595 80.9894 28.3416 80.8408C28.7236 80.6921 29.1316 80.6216 29.5414 80.6335V80.6335ZM74.9108 80.7714C75.708 80.7945 76.4648 81.1275 77.0204 81.6996C77.5759 82.2717 77.8865 83.0379 77.8862 83.8354C77.8862 84.6481 77.5634 85.4274 76.9888 86.002C76.4142 86.5767 75.6348 86.8995 74.8222 86.8995C74.0095 86.8995 73.2302 86.5767 72.6556 86.002C72.081 85.4274 71.7581 84.6481 71.7581 83.8354C71.758 83.4255 71.8401 83.0197 71.9996 82.642C72.1591 82.2644 72.3927 81.9226 72.6867 81.6369C72.9807 81.3512 73.329 81.1273 73.711 80.9787C74.0931 80.83 74.5011 80.7595 74.9108 80.7714V80.7714Z" fill="black"/>
<path fill-rule="evenodd" clip-rule="evenodd" d="M96.2704 52.2C96.2704 63.8617 91.6379 75.0458 83.3918 83.2918C75.1457 91.5379 63.9617 96.1705 52.3 96.1705C40.6383 96.1705 29.4542 91.5379 21.2082 83.2918C12.9621 75.0458 8.32955 63.8617 8.32955 52.2C8.32955 40.5383 12.9621 29.3543 21.2082 21.1082C29.4542 12.8622 40.6383 8.22957 52.3 8.22957C63.9617 8.22957 75.1457 12.8622 83.3918 21.1082C91.6379 29.3543 96.2704 40.5383 96.2704 52.2V52.2ZM95.4428 47.9537L102.3 52.2L95.4428 56.4463L101.334 61.9537L93.7877 64.7813L98.497 71.333L90.5266 72.6335L93.8763 79.9833L85.8074 79.6976L87.6596 87.5596L79.7975 85.7074L80.0832 93.7764L72.7335 90.4266L71.433 98.3971L64.8813 93.6877L62.0537 101.235L56.5463 95.3429L52.3 102.2L48.0537 95.3429L42.5463 101.235L39.7187 93.6877L33.167 98.3971L31.8665 90.4266L24.5167 93.7764L24.8025 85.7074L16.9404 87.5596L18.7926 79.6976L10.7236 79.9833L14.0734 72.6335L6.10294 71.333L10.8123 64.7813L3.26551 61.9537L9.15713 56.4463L2.29999 52.2L9.15713 47.9537L3.26551 42.4463L10.8123 39.6187L6.10294 33.067L14.0734 31.7665L10.7236 24.4168L18.7926 24.7025L16.9404 16.8404L24.8025 18.6926L24.5167 10.6237L31.8665 13.9734L33.167 6.00297L39.7187 10.7123L42.5463 3.16553L48.0537 9.05715L52.3 2.20001L56.5463 9.05715L62.0537 3.16553L64.8813 10.7123L71.433 6.00297L72.7335 13.9734L80.0832 10.6237L79.7975 18.6926L87.6596 16.8404L85.8074 24.7025L93.8763 24.4168L90.5266 31.7665L98.497 33.067L93.7877 39.6187L101.334 42.4463L95.4428 47.9537Z" fill="black" stroke="black" stroke-width="3" stroke-linecap="round" stroke-linejoin="round"/>
</svg>
