<svg width="40" height="40" viewBox="0 0 100 100" fill="none" xmlns="http://www.w3.org/2000/svg">
<path d="M37.3355 1.60601C50.2656 -1.71407 64.5562 0.220604 75.9595 7.26718C90.3215 15.8665 99.6976 32.133 99.936 48.8774C100.461 65.7887 91.6575 82.5572 77.5104 91.7535C61.7647 102.359 39.9834 102.765 23.9036 92.6851C7.51404 82.8914 -2.05282 63.1375 0.404812 44.1715C2.38438 24.1307 17.8443 6.45512 37.3355 1.60641V1.60601Z" fill="#010101"/>
<path d="M35.3551 9.79925C59.7848 0.00554419 89.7493 18.0876 92.2779 44.3152C96.2146 67.9147 76.6517 91.8967 52.7705 92.5896C30.0587 94.8589 8.11031 75.582 7.46635 52.7471C5.77249 34.2591 17.9397 15.9142 35.3551 9.79925Z" fill="white"/>
<path d="M37.8124 47.4683C48.7629 38.5107 59.4747 29.2426 70.6637 20.5479C64.7947 29.5772 58.759 38.4867 52.89 47.5157C47.8561 47.5397 42.8226 47.5397 37.8124 47.4679V47.4683ZM47.0691 52.4603C52.1266 52.4603 57.1605 52.4603 62.1944 52.5321C51.1725 61.4415 40.5084 70.781 29.2954 79.4522C35.1644 70.4228 41.2001 61.4897 47.0691 52.4603Z" fill="#010101"/>
</svg>
