<svg width="40" height="40" viewBox="0 0 100 100" fill="none" xmlns="http://www.w3.org/2000/svg">
<mask id="mask0_5_11" style="mask-type:alpha" maskUnits="userSpaceOnUse" x="9" y="0" width="81" height="100">
<path d="M12.9694 91.9511L9.87823 9.58408C9.77614 6.86382 11.8619 4.55843 14.5788 4.38863L84.6378 0.00994061C87.4032 -0.1629 89.7852 1.93883 89.958 4.70428C89.9645 4.80847 89.9678 4.91284 89.9678 5.01724V94.7707C89.9678 97.5416 87.7216 99.7878 84.9507 99.7878C84.8757 99.7878 84.8006 99.7861 84.7256 99.7827L17.7579 96.775C15.1498 96.6579 13.0674 94.5601 12.9694 91.9511Z" fill="white"/>
</mask>
<g mask="url(#mask0_5_11)">
<path d="M12.9694 91.9511L9.87823 9.58408C9.77614 6.86382 11.8619 4.55843 14.5788 4.38863L84.6378 0.00994061C87.4032 -0.1629 89.7852 1.93883 89.958 4.70428C89.9645 4.80847 89.9678 4.91284 89.9678 5.01724V94.7707C89.9678 97.5416 87.7216 99.7878 84.9507 99.7878C84.8757 99.7878 84.8006 99.7861 84.7256 99.7827L17.7579 96.775C15.1498 96.6579 13.0674 94.5601 12.9694 91.9511Z" fill="#FF4785"/>
<path d="M69.0174 12.2655L69.4959 0.755951L79.1171 0L79.5316 11.8694C79.5461 12.2825 79.2229 12.6291 78.8098 12.6435C78.6329 12.6497 78.4596 12.5929 78.3205 12.4834L74.6103 9.56063L70.2175 12.8929C69.8882 13.1427 69.4187 13.0782 69.1689 12.7489C69.0637 12.6103 69.0102 12.4394 69.0174 12.2655ZM56.7128 37.6114C56.7128 39.5633 69.8608 38.6278 71.6258 37.2567C71.6258 23.9645 64.4935 16.9797 51.4331 16.9797C38.3727 16.9797 31.0551 24.0732 31.0551 34.7135C31.0551 53.2453 56.0644 53.6 56.0644 63.7082C56.0644 66.5456 54.675 68.2303 51.6183 68.2303C47.6354 68.2303 46.0607 66.1962 46.2459 59.28C46.2459 57.7797 31.0551 57.3119 30.592 59.28C29.4126 76.0404 39.8547 80.8747 51.8036 80.8747C63.3819 80.8747 72.4594 74.7032 72.4594 63.5309C72.4594 43.669 47.0796 44.201 47.0796 34.3588C47.0796 30.3687 50.0437 29.8367 51.8036 29.8367C53.6561 29.8367 56.9907 30.1632 56.7128 37.6114Z" fill="white"/>
</g>
</svg>
