<svg width="40" height="40" viewBox="0 0 99 100" fill="none" xmlns="http://www.w3.org/2000/svg">
<g clip-path="url(#clip0_4_220)">
<path d="M25.5 98.5L2 2.5L97.5 30L25.5 98.5Z" fill="white"/>
<path fill-rule="evenodd" clip-rule="evenodd" d="M25.5467 98.8126L1.53943 1.62372L97.7783 29.3315L25.5467 98.8126Z" stroke="black" stroke-width="2.22222" stroke-miterlimit="10" stroke-linejoin="round"/>
<path fill-rule="evenodd" clip-rule="evenodd" d="M49.641 15.4804L61.636 64.0893L13.5432 50.231L49.641 15.4804Z" stroke="black" stroke-width="2.22222" stroke-miterlimit="10" stroke-linejoin="round"/>
<path fill-rule="evenodd" clip-rule="evenodd" d="M37.7077 56.8238L31.7499 32.6766L55.6432 39.5355L37.7077 56.8238Z" stroke="black" stroke-width="2.22222" stroke-miterlimit="10" stroke-linejoin="round"/>
<path fill-rule="evenodd" clip-rule="evenodd" d="M25.7899 8.55872L31.7477 32.7059L7.85437 25.8471L25.7899 8.55872Z" stroke="black" stroke-width="2.22222" stroke-miterlimit="10" stroke-linejoin="round"/>
<path fill-rule="evenodd" clip-rule="evenodd" d="M73.5742 22.3237L79.532 46.471L55.6387 39.6121L73.5742 22.3237Z" stroke="black" stroke-width="2.22222" stroke-miterlimit="10" stroke-linejoin="round"/>
<path fill-rule="evenodd" clip-rule="evenodd" d="M37.7105 56.8405L43.6682 80.9877L19.7749 74.1288L37.7105 56.8405Z" stroke="black" stroke-width="2.22222" stroke-miterlimit="10" stroke-linejoin="round"/>
</g>
<defs>
<clipPath id="clip0_4_220">
<rect width="98.8889" height="100" fill="white"/>
</clipPath>
</defs>
</svg>
