<svg width="40" height="40" viewBox="0 0 100 100" fill="none" xmlns="http://www.w3.org/2000/svg">
<circle cx="50" cy="50" r="50" fill="#2B2C35"/>
<mask id="mask0_208_21" style="mask-type:luminance" maskUnits="userSpaceOnUse" x="-59" y="-59" width="218" height="218">
<path d="M158.333 -58.3333H-58.3334V158.333H158.333V-58.3333Z" fill="white"/>
</mask>
<g mask="url(#mask0_208_21)">
<path d="M49.7662 20.6796C33.7275 20.6796 20.6787 33.7283 20.6787 49.7671C20.6787 65.8058 33.7275 78.8546 49.7662 78.8546C65.805 78.8546 78.8537 65.8058 78.8537 49.7671C78.8537 33.7283 65.805 20.6796 49.7662 20.6796ZM49.7662 64.82C41.4516 64.82 34.7133 58.0816 34.7133 49.7671C34.7133 41.4525 41.4516 34.7141 49.7662 34.7141C58.0808 34.7141 64.8191 41.4525 64.8191 49.7671C64.8191 58.0816 58.0808 64.82 49.7662 64.82Z" fill="white"/>
<path fill-rule="evenodd" clip-rule="evenodd" d="M52.2043 15.9021V5.04166C75.8101 6.30374 94.5626 25.8471 94.5626 49.7671C94.5626 73.6871 75.8101 93.225 52.2043 94.4925V83.6321C69.7976 82.3754 83.7293 67.6746 83.7293 49.7671C83.7293 31.8596 69.7976 17.1587 52.2043 15.9021ZM24.1135 71.9754C19.4497 66.5912 16.4435 59.7337 15.9072 52.2046H5.04138C5.60472 62.74 9.81888 72.3004 16.4218 79.6617L24.108 71.9754H24.1135ZM47.3295 94.4925V83.6321C39.7949 83.0958 32.9374 80.095 27.5533 75.4258L19.867 83.1121C27.2337 89.7204 36.7941 93.9292 47.3241 94.4925H47.3295Z" fill="url(#paint0_linear_208_21)"/>
</g>
<defs>
<linearGradient id="paint0_linear_208_21" x1="53.9597" y1="11.331" x2="9.93304" y2="55.3577" gradientUnits="userSpaceOnUse">
<stop stop-color="#0096FF"/>
<stop offset="1" stop-color="#FF1E56"/>
</linearGradient>
</defs>
</svg>
