<svg width="40" height="40" viewBox="0 0 101 45" fill="none" xmlns="http://www.w3.org/2000/svg">
<path d="M21.5456 26.7129L18.0015 11.3842H14.6526L19.9053 31.3701H23.0492L27.472 15.6704L31.8363 31.3701H34.9899L40.4282 11.3842H36.884L33.3399 26.7129L29.0635 11.3842H25.822L21.5456 26.7129Z" fill="#990000"/>
<path d="M49.2738 19.8003C48.7857 19.1071 48.1706 18.5799 47.4481 18.2187C46.7061 17.8476 45.8469 17.6621 44.89 17.6621C43.8161 17.6621 42.8495 17.8574 42.0098 18.2382C41.219 18.5994 40.5453 19.1364 39.9986 19.8296C38.9929 21.1087 38.4657 22.9149 38.4657 25.0531C38.4657 26.0002 38.6024 26.8984 38.866 27.699C39.1296 28.5094 39.5299 29.2221 40.0376 29.8177C41.1116 31.0674 42.6445 31.7313 44.4702 31.7313C45.427 31.7313 46.2081 31.6337 46.8623 31.4287C47.4285 31.2529 47.8093 31.0186 48.1218 30.8136C48.5221 30.5499 48.8833 30.2277 49.2153 29.8567C49.4886 29.5345 49.7327 29.1831 49.9475 28.8023C50.3185 28.1188 50.504 27.4744 50.5431 27.1425L50.5724 26.9179H47.9655L47.9558 27.1034C47.8874 27.9529 46.7744 29.4662 44.7924 29.4662C41.961 29.4662 41.2873 27.4159 41.2385 25.6096H50.7286V25.4046C50.7286 24.2427 50.6114 23.1785 50.3771 22.251C50.1135 21.2844 49.7522 20.4643 49.2738 19.8003V19.8003ZM44.5874 20.0054C46.6865 20.0054 47.8093 21.1379 48.0144 23.4617H41.219C41.3264 21.5773 42.8202 20.0054 44.5874 20.0054V20.0054Z" fill="#990000"/>
<path d="M63.841 21.714C63.5871 20.9036 63.2161 20.1909 62.7377 19.5953C62.2398 18.9802 61.6344 18.5018 60.9412 18.1698C60.2187 17.8281 59.4083 17.6524 58.5296 17.6524C57.7193 17.6621 56.987 17.8379 56.3426 18.1796C55.8056 18.453 55.3272 18.8435 54.9171 19.3317V13.2002H52.3201V31.3603H54.7902V30.1203C55.005 30.4035 55.2882 30.7062 55.6592 30.9698C56.3621 31.4775 57.2311 31.7313 58.2367 31.7313C59.3205 31.7313 60.2968 31.4872 61.117 31.0088C61.8492 30.5792 62.4741 29.9641 62.9623 29.183C63.3918 28.4996 63.714 27.6892 63.9288 26.7812C64.1143 26.0002 64.212 25.141 64.212 24.3013C64.2217 23.3933 64.0948 22.5146 63.841 21.714V21.714ZM61.5075 24.6626C61.5075 26.088 61.2244 27.2792 60.6776 28.1188C60.1016 29.0073 59.2619 29.4564 58.1879 29.4564C56.6355 29.4564 54.8195 28.3727 54.8195 25.3069C54.8195 23.8424 55.005 22.7099 55.376 21.8507C55.913 20.6107 56.821 20.0151 58.1391 20.0151C59.545 20.0151 60.4921 20.5619 61.0193 21.7042C61.4489 22.6415 61.5075 23.7838 61.5075 24.6626V24.6626Z" fill="#990000"/>
<path d="M79.2543 31.5679C78.3646 31.9451 77.4749 32.1338 76.5753 32.1338C75.1518 32.1338 73.8668 31.8856 72.7299 31.3892C71.5931 30.8929 70.6342 30.2079 69.8533 29.3343C69.0724 28.4608 68.4694 27.4383 68.0542 26.257C67.639 25.0757 67.4314 23.805 67.4314 22.445C67.4314 21.0453 67.639 19.7548 68.0542 18.5536C68.4694 17.3524 69.0625 16.3101 69.8434 15.4266C70.6244 14.5332 71.5832 13.8383 72.72 13.332C73.8569 12.8257 75.1321 12.5676 76.5654 12.5676C77.5243 12.5676 78.4437 12.7165 79.3333 13.0044C80.223 13.2923 81.0336 13.7192 81.7552 14.2751C82.4769 14.831 83.07 15.5259 83.5346 16.3498C83.9992 17.1738 84.2859 18.1168 84.3946 19.179H80.4998C80.2527 18.1367 79.7881 17.3524 79.0961 16.8263C78.4041 16.3002 77.5639 16.0421 76.5654 16.0421C75.6461 16.0421 74.8652 16.2208 74.2226 16.5781C73.5801 16.9355 73.0562 17.412 72.6607 18.0176C72.2653 18.6231 71.9688 19.3081 71.7908 20.0724C71.6129 20.8368 71.514 21.631 71.514 22.4549C71.514 23.2392 71.603 24.0035 71.7908 24.7481C71.9688 25.4926 72.2653 26.1577 72.6607 26.7533C73.0562 27.3489 73.5801 27.8254 74.2226 28.1828C74.8652 28.5402 75.6461 28.7189 76.5654 28.7189C77.9197 28.7189 78.9676 28.3714 79.709 27.6865C80.4504 27.0015 80.8754 26.0088 81.004 24.6984H76.8917V21.6111H84.6912V31.7069H82.0913L81.6762 29.5924C80.9545 30.5355 80.1439 31.1907 79.2543 31.5679V31.5679Z" fill="#990000"/>
<path d="M91.3243 13.0342V28.2325H100.389V31.697H87.2417V13.0342H91.3243Z" fill="#990000"/>
<path d="M72.0281 34.0199C65.7905 37.8318 56.4389 39.9959 46.0099 39.9959C27.2179 39.9959 11.9945 32.1437 11.9945 22.445C11.9945 12.7562 27.2278 4.89402 46.0099 4.89402C56.4785 4.89402 65.8597 7.10774 72.0973 10.9396C65.2962 4.51679 53.0779 0.00992701 39.1199 0C17.728 0 0.38916 10.0461 0.38916 22.445C0.38916 34.8438 17.728 44.8999 39.11 44.8999C53.0186 44.8999 65.1973 40.4029 72.0281 34.0199V34.0199Z" fill="#990000"/>
</svg>
